<?xml version="1.0" encoding="UTF-8" standalone="no"?>
<svg
   xmlns:dc="http://purl.org/dc/elements/1.1/"
   xmlns:cc="http://creativecommons.org/ns#"
   xmlns:rdf="http://www.w3.org/1999/02/22-rdf-syntax-ns#"
   xmlns:svg="http://www.w3.org/2000/svg"
   xmlns="http://www.w3.org/2000/svg"
   xmlns:sodipodi="http://sodipodi.sourceforge.net/DTD/sodipodi-0.dtd"
   xmlns:inkscape="http://www.inkscape.org/namespaces/inkscape"
   version="1.1"
   id="Layer_1"
   x="0px"
   y="0px"
   width="100px"
   height="100px"
   viewBox="0 0 100 100"
   enable-background="new 0 0 100 100"
   xml:space="preserve"
   inkscape:version="0.48.4 r9939"
   sodipodi:docname="play.svg"><metadata
   id="metadata17"><rdf:RDF><cc:Work
       rdf:about=""><dc:format>image/svg+xml</dc:format><dc:type
         rdf:resource="http://purl.org/dc/dcmitype/StillImage" /></cc:Work></rdf:RDF></metadata><defs
   id="defs15" /><sodipodi:namedview
   pagecolor="#ffffff"
   bordercolor="#666666"
   borderopacity="1"
   objecttolerance="10"
   gridtolerance="10"
   guidetolerance="10"
   inkscape:pageopacity="0"
   inkscape:pageshadow="2"
   inkscape:window-width="1366"
   inkscape:window-height="706"
   id="namedview13"
   showgrid="false"
   inkscape:zoom="3.337544"
   inkscape:cx="-25.603124"
   inkscape:cy="52.63736"
   inkscape:window-x="-8"
   inkscape:window-y="-8"
   inkscape:window-maximized="1"
   inkscape:current-layer="g3" />
<g
   id="g3"
   style="fill:#000000">
	
	
<path
   sodipodi:type="arc"
   style="fill:#efefef;fill-opacity:1;stroke:none"
   id="path2987-1"
   sodipodi:cx="-62.321274"
   sodipodi:cy="57.004311"
   sodipodi:rx="41.947014"
   sodipodi:ry="43.295311"
   d="m -20.684101,51.751749 a 41.947014,43.295311 0 1 1 -0.162098,-1.223685"
   sodipodi:start="6.1615663"
   sodipodi:end="12.416224"
   sodipodi:open="true"
   transform="matrix(1.1321294,0,0,1.0830369,121.49141,-11.175508)" /><g
   transform="translate(0.002,0)"
   style="fill:#000000"
   id="g3028"><g
     style="fill:#000000"
     id="g5"><path
       inkscape:connector-curvature="0"
       style="fill:#242424;fill-opacity:1"
       id="path7"
       d="M 50,0 C 22.427,0 -0.002,22.43 -0.002,50 c 0,27.571 22.43,50 50.003,50 27.574,0 50.003,-22.429 50.003,-50 C 100.004,22.43 77.574,0 50,0 z m 0,94.231 C 25.61,94.231 5.767,74.39 5.767,50 5.767,25.611 25.61,5.77 50,5.77 74.39,5.77 94.234,25.611 94.234,50 94.234,74.39 74.391,94.231 50,94.231 z" /></g><g
     style="fill:#242424;fill-opacity:1"
     id="g9"><path
       inkscape:connector-curvature="0"
       style="fill:#242424;fill-opacity:1"
       id="path11"
       d="m 44.783,24.503 c -0.828,-0.827 -2.068,-1.075 -3.144,-0.625 -1.076,0.446 -1.78,1.499 -1.78,2.665 v 46.915 c 0,1.166 0.704,2.218 1.78,2.666 0.357,0.149 0.732,0.22 1.104,0.22 0.75,0 1.487,-0.293 2.04,-0.845 L 68.238,52.04 c 1.127,-1.126 1.127,-2.952 0,-4.078 L 44.783,24.503 z m 0.845,41.988 V 33.507 L 62.119,50 45.628,66.491 z" /></g><path
     inkscape:connector-curvature="0"
     id="path3754"
     d="M 43.220339,30.508475 42.584746,70.338983 66.313559,50 z"
     style="fill:#242424;fill-opacity:1;stroke:none" /></g></g>
</svg>