<svg xmlns="http://www.w3.org/2000/svg" xmlns:xlink="http://www.w3.org/1999/xlink" version="1.1" id="Layer_1" x="0px" y="0px" width="100px" height="100px" viewBox="0 0 100 100" enable-background="new 0 0 100 100" xml:space="preserve">
<g>
	<g>
		<path fill="#000000" d="M50.002,0C22.429,0,0,22.429,0,50s22.43,50,50.003,50C77.57,100,100,77.57,100,50S77.57,0,50.002,0z     M50.002,94.23C25.612,94.23,5.769,74.39,5.769,50c0-24.389,19.843-44.23,44.233-44.23S94.23,25.611,94.23,50    C94.23,74.39,74.393,94.23,50.002,94.23z"/>
	</g>
	<g>
		<path fill="#000000" d="M62.713,34.401H37.286c-1.594,0-2.885,1.292-2.885,2.885v25.427c0,1.592,1.291,2.885,2.885,2.885h25.427    c1.595,0,2.885-1.293,2.885-2.885V37.286C65.598,35.693,64.308,34.401,62.713,34.401z M59.828,59.828H40.171V40.171h19.657V59.828    z"/>
	</g>
</g>
</svg>