<?xml version="1.0" encoding="UTF-8" standalone="no"?>
<svg
   xmlns:dc="http://purl.org/dc/elements/1.1/"
   xmlns:cc="http://creativecommons.org/ns#"
   xmlns:rdf="http://www.w3.org/1999/02/22-rdf-syntax-ns#"
   xmlns:svg="http://www.w3.org/2000/svg"
   xmlns="http://www.w3.org/2000/svg"
   xmlns:sodipodi="http://sodipodi.sourceforge.net/DTD/sodipodi-0.dtd"
   xmlns:inkscape="http://www.inkscape.org/namespaces/inkscape"
   version="1.1"
   id="Layer_1"
   x="0px"
   y="0px"
   width="100px"
   height="100px"
   viewBox="0 0 100 100"
   enable-background="new 0 0 100 100"
   xml:space="preserve"
   inkscape:version="0.48.4 r9939"
   sodipodi:docname="stop.svg"><metadata
   id="metadata17"><rdf:RDF><cc:Work
       rdf:about=""><dc:format>image/svg+xml</dc:format><dc:type
         rdf:resource="http://purl.org/dc/dcmitype/StillImage" /></cc:Work></rdf:RDF></metadata><defs
   id="defs15" /><sodipodi:namedview
   pagecolor="#ffffff"
   bordercolor="#666666"
   borderopacity="1"
   objecttolerance="10"
   gridtolerance="10"
   guidetolerance="10"
   inkscape:pageopacity="0"
   inkscape:pageshadow="2"
   inkscape:window-width="1366"
   inkscape:window-height="706"
   id="namedview13"
   showgrid="false"
   inkscape:zoom="2.36"
   inkscape:cx="-80.040082"
   inkscape:cy="63.867656"
   inkscape:window-x="-8"
   inkscape:window-y="-8"
   inkscape:window-maximized="1"
   inkscape:current-layer="Layer_1" />

<path
   sodipodi:type="arc"
   style="fill:#efefef;fill-opacity:1;stroke:none"
   id="path2987-1"
   sodipodi:cx="-62.321274"
   sodipodi:cy="57.004311"
   sodipodi:rx="41.947014"
   sodipodi:ry="43.295311"
   d="m -20.684101,51.751749 a 41.947014,43.295311 0 1 1 -0.162098,-1.223685"
   sodipodi:start="6.1615663"
   sodipodi:end="12.416224"
   sodipodi:open="true"
   transform="matrix(1.1321294,0,0,1.0830369,120.73126,-11.815068)" /><g
   id="g2987"><g
     style="fill:#242424;fill-opacity:1"
     id="g3"><g
       style="fill:#242424;fill-opacity:1"
       id="g5"><path
         inkscape:connector-curvature="0"
         style="fill:#242424;fill-opacity:1"
         id="path7"
         d="M 50.002,0 C 22.429,0 0,22.429 0,50 0,77.571 22.43,100 50.003,100 77.57,100 100,77.57 100,50 100,22.43 77.57,0 50.002,0 z m 0,94.23 C 25.612,94.23 5.769,74.39 5.769,50 5.769,25.611 25.612,5.77 50.002,5.77 74.392,5.77 94.23,25.611 94.23,50 c 0,24.39 -19.837,44.23 -44.228,44.23 z" /></g><g
       style="fill:#242424;fill-opacity:1"
       id="g9"><path
         inkscape:connector-curvature="0"
         style="fill:#242424;fill-opacity:1"
         id="path11"
         d="M 62.713,34.401 H 37.286 c -1.594,0 -2.885,1.292 -2.885,2.885 v 25.427 c 0,1.592 1.291,2.885 2.885,2.885 h 25.427 c 1.595,0 2.885,-1.293 2.885,-2.885 V 37.286 c 0,-1.593 -1.29,-2.885 -2.885,-2.885 z M 59.828,59.828 H 40.171 V 40.171 h 19.657 v 19.657 z" /></g></g><rect
     y="38.347462"
     x="36.864407"
     height="23.622881"
     width="25.405304"
     id="rect3754"
     style="fill:#242424;fill-opacity:1;stroke:none" /></g></svg>